# xmcd
#
# Track frame offsets:
#	150
#	9783
#	30158
#	39067
#	71667
#	95271
#	113282
#	126223
#	144943
#	163290
#	173421
#	189218
#	207573
#	221913
#	236504
#	255420
#	268456
#	293896
#	309728
#
# Disc length: 4299 seconds
# Revision: 0
# Processed by: cddbd v1.5.2PL0 Copyright (c) Steve Scherf et al.
# Submitted via: dBpowerAMP V12.0
#
DISCID=fe10c913
DTITLE=Bach - Englische Suiten 1 - Hewitt
DYEAR=2003
DGENRE=Classical
TTITLE0=Suite 1, A-Dur, BMV 806 - 1 Präludium
TTITLE1=Suite 1, A-Dur, BMV 806 - Allemande
TTITLE2=Suite 1, A-Dur, BMV 806 - Courant 1
TTITLE3=Suite 1, A-Dur, BMV 806 - Courante 2
TTITLE4=Suite 1, A-Dur, BMV 806 - Sarabande
TTITLE5=Suite 1, A-Dur, BMV 806 - Bourree I und II
TTITLE6=Suite 1, A-Dur, BMV 806 - Gigue
TTITLE7=Suite 2, a-moll, BMV 807 - Präludium
TTITLE8=Suite 2, a-moll, BMV 807 - Allemande
TTITLE9=Suite 2, a-moll, BMV 807 - Courante
TTITLE10=Suite 2, a-moll, BMV 807 - Sarabande
TTITLE11=Suite 2, a-moll, BMV 807 - Bourree I und II
TTITLE12=Suite 2, a-moll, BMV 807 - Gigue
TTITLE13=Suite 3, g-moll, BMV 808 - Präludium
TTITLE14=Suite 3, g-moll, BMV 808 - Allemande
TTITLE15=Suite 3, g-moll, BMV 808 - Courante
TTITLE16=Suite 3, g-moll, BMV 808 - Sarabande
TTITLE17=Suite 3, g-moll, BMV 808 - Gavotte I und II
TTITLE18=Suite 3, g-moll, BMV 808 - Gigue
EXTD=
EXTT0=
EXTT1=
EXTT2=
EXTT3=
EXTT4=
EXTT5=
EXTT6=
EXTT7=
EXTT8=
EXTT9=
EXTT10=
EXTT11=
EXTT12=
EXTT13=
EXTT14=
EXTT15=
EXTT16=
EXTT17=
EXTT18=
PLAYORDER=
